<svg aria-hidden="true" style="position: absolute; width: 0; height: 0; overflow: hidden;" version="1.1" xmlns="http://www.w3.org/2000/svg" xmlns:xlink="http://www.w3.org/1999/xlink">
<defs>
<symbol id="burger-icon" viewBox="0 0 32 32">
<path d="M6.4 11.733v-2.133h19.2v2.133h-19.2zM6.4 17.067h19.2v-2.133h-19.2v2.133zM6.4 22.4h19.2v-2.133h-19.2v2.133z"></path>
</symbol>

<symbol id="search-button" viewBox="0 0 512 512">
<path stroke-width="3" d="M500.3 443.7l-119.7-119.7c27.22-40.41 40.65-90.9 33.46-144.7C401.8 87.79 326.8 13.32 235.2 1.723C99.01-15.51-15.51 99.01 1.724 235.2c11.6 91.64 86.08 166.7 177.6 178.9c53.8 7.189 104.3-6.236 144.7-33.46l119.7 119.7c15.62 15.62 40.95 15.62 56.57 0C515.9 484.7 515.9 459.3 500.3 443.7zM79.1 208c0-70.58 57.42-128 128-128s128 57.42 128 128c0 70.58-57.42 128-128 128S79.1 278.6 79.1 208z"></path>
</symbol>

<symbol id="say-button" viewBox="0 0 512 512">
<path  d="M256 32C114.6 32 .0272 125.1 .0272 240c0 49.63 21.35 94.98 56.97 130.7c-12.5 50.37-54.27 95.27-54.77 95.77c-2.25 2.25-2.875 5.734-1.5 8.734C1.979 478.2 4.75 480 8 480c66.25 0 115.1-31.76 140.6-51.39C181.2 440.9 217.6 448 256 448c141.4 0 255.1-93.13 255.1-208S397.4 32 256 32z"></path>
</symbol>

<symbol id="house" viewBox="0 0 576 512">
<path fill="currentColor" d="M575.8 255.5C575.8 273.5 560.8 287.6 543.8 287.6H511.8L512.5 447.7C512.5 450.5 512.3 453.1 512 455.8V472C512 494.1 494.1 512 472 512H456C454.9 512 453.8 511.1 452.7 511.9C451.3 511.1 449.9 512 448.5 512H392C369.9 512 352 494.1 352 472V384C352 366.3 337.7 352 320 352H256C238.3 352 224 366.3 224 384V472C224 494.1 206.1 512 184 512H128.1C126.6 512 125.1 511.9 123.6 511.8C122.4 511.9 121.2 512 120 512H104C81.91 512 64 494.1 64 472V360C64 359.1 64.03 358.1 64.09 357.2V287.6H32.05C14.02 287.6 0 273.5 0 255.5C0 246.5 3.004 238.5 10.01 231.5L266.4 8.016C273.4 1.002 281.4 0 288.4 0C295.4 0 303.4 2.004 309.5 7.014L564.8 231.5C572.8 238.5 576.9 246.5 575.8 255.5L575.8 255.5z"></path>
</symbol>

<symbol id="arrow-slider" viewBox="0 0 448 512">
<path class="" fill="currentColor" d="M416 352c-8.188 0-16.38-3.125-22.62-9.375L224 173.3l-169.4 169.4c-12.5 12.5-32.75 12.5-45.25 0s-12.5-32.75 0-45.25l192-192c12.5-12.5 32.75-12.5 45.25 0l192 192c12.5 12.5 12.5 32.75 0 45.25C432.4 348.9 424.2 352 416 352z"></path>
</symbol>

<symbol id="clock" viewBox="0 0 20 20">
<path d="M10 0.5C4.76166 0.5 0.5 4.76166 0.5 10C0.5 15.2383 4.76166 19.5 10 19.5C15.2383 19.5 19.5 15.2383 19.5 10C19.5 4.76166 15.2383 0.5 10 0.5ZM10 18C5.8088 18 2 14.1911 2 10C2 5.80888 5.80888 2 10 2C14.1911 2 18 5.80903 18 10C18 14.191 14.1911 18 10 18Z" fill="var(--cta-action-color)"></path>
<path d="M10.9495 4.48723H9.05053V10.3948L13.0281 14.3512L14.3674 13.0046L10.9496 9.60541L10.9495 4.48723Z" fill="var(--cta-action-color)"></path>
</symbol>

<symbol id="logo-big" viewBox="62.653 2.162 194.03 83.514" >
<path fill="#6e6e6e" d="M168.491 30.794a2.572 2.572 0 00-2.927-.498l-2.742-2.73a3.499 3.499 0 00-.008-3.711l2.727-2.738a2.577 2.577 0 003.021-.463 2.574 2.574 0 10-4.067-.551l-2.696 2.708a3.5 3.5 0 00-3.805-.053l-2.702-2.692a2.574 2.574 0 10-1.072 1.145l2.668 2.657a3.498 3.498 0 00.069 3.803l-2.691 2.703a2.574 2.574 0 101.018 1.04l2.721-2.731a3.499 3.499 0 003.711-.007l2.707 2.696a2.574 2.574 0 104.068-.578z"></path>

<g fill="#707070"><path d="M141.812 30.621l-.171-.642-4.852 1.296.172.642a23.426 23.426 0 002.371 5.716l.332.573 4.344-2.517-.333-.574a18.284 18.284 0 01-1.863-4.494zM149.145 41.076l-.543-.383-2.888 4.106.542.382a23.64 23.64 0 005.485 2.866l.625.229 1.714-4.724-.624-.226a18.32 18.32 0 01-4.311-2.25zM147.846 11.487a18.5 18.5 0 014.102-2.624l.601-.282-2.127-4.548-.601.281a23.61 23.61 0 00-5.209 3.333l-.508.428 3.234 3.84.508-.428zM141.46 22.541a18.48 18.48 0 011.457-4.642l.28-.602-4.547-2.124-.281.602a23.424 23.424 0 00-1.855 5.904l-.113.653 4.945.861.114-.652zM176.023 35.1a18.816 18.816 0 01-2.972 3.866l-.47.47 3.557 3.544.469-.469a23.807 23.807 0 003.762-4.898l.332-.575-4.346-2.512-.332.574zM183.167 21.654l-.115-.652-4.943.863.114.653a19.05 19.05 0 01.216 4.879l-.058.662 5.004.424.057-.66a24.086 24.086 0 00-.275-6.169zM175.129 15.067l.383.544 4.104-2.891-.382-.542a23.683 23.683 0 00-2.645-3.14 23.19 23.19 0 00-1.535-1.407l-.508-.425-3.227 3.843.51.426c.417.35.824.723 1.209 1.112.776.774 1.48 1.609 2.091 2.48zM166.252 43.32a18.876 18.876 0 01-4.757 1.053l-.659.059.434 5.001.662-.058a23.621 23.621 0 006.035-1.335l.623-.228-1.714-4.72-.624.228zM165.309 7.916l1.295-4.82-.643-.171c-1.905-.506-3.963-.763-6.127-.763h-.666l.015 4.99h.661c1.719 0 3.342.2 4.825.594l.64.17z"></path></g>

<g><path fill="#626262" d="M78.01 82.93c-1.842 1.842-4.03 2.641-6.393 2.641-4.899 0-8.964-3.162-8.964-8.895s3.996-8.895 8.964-8.895c2.327 0 4.412.799 6.219 2.571l-1.807 1.876c-1.216-1.182-2.814-1.736-4.343-1.736-3.405 0-6.15 2.327-6.15 6.184 0 3.996 2.78 6.185 6.115 6.185 1.633 0 3.267-.556 4.482-1.807l1.911 1.911-.034-.035zM95.384 85.328l-.069-3.127c-1.355 2.362-3.961 3.475-6.323 3.475-4.934 0-8.791-3.405-8.791-8.999 0-5.559 3.927-8.895 8.825-8.859 2.571 0 5.107 1.182 6.358 3.404l.035-3.127h2.779v17.164h-2.745l-.069.069zM89.13 70.527c-3.405 0-6.149 2.433-6.149 6.254s2.744 6.288 6.149 6.288c8.27 0 8.27-12.576.035-12.576l-.035.034zM114.426 71.917c-1.494-1.355-3.058-1.668-4.83-1.668-2.362-.035-4.273.799-4.238 2.502.034 1.771 2.119 2.293 4.273 2.536 3.127.382 7.296 1.008 7.227 5.247-.069 3.439-3.335 5.142-7.192 5.142-2.884 0-5.732-.8-7.678-3.231l1.633-1.98c1.528 1.877 3.995 2.641 6.115 2.641 1.876 0 4.273-.59 4.343-2.676.034-1.875-1.98-2.432-4.621-2.744-3.301-.417-6.845-1.285-6.845-4.934-.035-3.648 3.648-5.072 6.949-5.038 2.57 0 4.69.626 6.531 2.293l-1.633 1.876-.034.034zM124.087 62.884c0 2.467-3.753 2.467-3.753-.035 0-2.467 3.753-2.467 3.753.035zm-3.336 22.375h2.85V68.025h-2.85v17.234zM128.812 68.06h2.606l.139 2.745c1.494-2.051 3.579-2.988 5.872-2.988 4.343 0 7.539 2.918 7.539 7.956v9.485h-2.849v-9.45c0-3.301-1.946-5.351-5.212-5.351-3.127.035-5.281 2.502-5.281 5.594v9.207h-2.814V68.06zM157.722 67.713c5.246 0 8.929 3.683 8.929 8.999 0 5.211-3.752 8.859-8.929 8.859-5.143 0-8.895-3.648-8.895-8.859 0-5.317 3.787-8.999 8.895-8.999zm.034 2.606c-3.509 0-6.08 2.57-6.08 6.393 0 3.613 2.536 6.184 6.046 6.184 3.544 0 6.08-2.57 6.115-6.184 0-3.823-2.641-6.393-6.081-6.393z"></path>

<path fill="#767676" d="M174.365 78.309c.244 1.668 1.842 3.023 4.656 3.023 1.354 0 3.231-.313 4.447-1.355l2.814 3.127c-1.842 1.807-4.795 2.537-7.366 2.537-6.219 0-9.624-3.648-9.624-9.139 0-5.211 3.509-8.859 9.104-8.859 5.837 0 9.658 3.648 8.581 10.666h-12.612zm8.131-3.648c-.104-1.875-2.016-2.744-4.1-2.744-2.016 0-3.544 1.043-4.031 2.744h8.131zM200.148 68.13h5.977v.174l-5.455 8.338 5.768 8.514v.104h-5.977l-3.161-5.143-3.127 5.143h-6.011v-.104l5.802-8.514-5.489-8.338v-.174h5.976l2.85 5.107 2.847-5.107zM215.646 63.405v4.794h4.343v4.169h-4.378v6.463c0 1.807 1.008 2.293 1.945 2.293.591 0 1.529-.139 2.085-.416l1.146 4.168c-1.251.486-2.258.695-3.613.766-3.718.173-6.532-1.46-6.532-6.811v-6.463h-3.058v-4.169h3.058V63.96l5.004-.555zM228.052 68.13l.382 1.876c1.146-1.599 2.676-2.293 4.586-2.293 1.634 0 2.988.486 4.204 1.563l-2.084 3.961c-.834-.591-1.703-.869-2.745-.869-2.154 0-3.995 1.391-3.995 3.961v8.93h-5.004V68.13h4.656zM251.992 68.094h4.69v17.164h-4.517l-.278-2.154c-1.146 1.807-3.613 2.502-5.281 2.537-5.142.034-8.859-3.301-8.859-8.965 0-5.697 3.926-9.033 8.999-8.964 2.154 0 4.169.834 5.072 2.362l.174-1.98zm-9.242 8.583c0 2.85 2.016 4.518 4.517 4.518 2.814 0 4.552-2.189 4.552-4.344 0-2.467-1.563-4.725-4.552-4.725-2.501 0-4.517 1.702-4.517 4.551z"></path></g>
</symbol>

<symbol id="visa" viewBox="0 0 149.277 119.311">
<g fill="#707070">
<path d="M71.93.654H61.44l-6.565 38.397h10.533zM93.187 16.19c-3.673-1.752-5.89-2.934-5.89-4.77 0-1.626 1.922-3.314 5.953-3.314 3.462-.064 5.89.675 7.79 1.456l.95.444 1.33-8.38C101.25.822 98.02 0 93.904 0 83.519 0 76.258 5.214 76.258 12.644c-.064 5.51 5.214 8.591 9.203 10.449 4.053 1.92 5.446 3.082 5.446 4.77 0 2.576-3.25 3.758-6.248 3.758-4.2 0-6.396-.57-9.837-1.984l-1.33-.57-1.456 8.591c2.428 1.119 6.987 1.984 11.694 2.069 11.02 0 18.154-5.15 18.238-13.088.043-4.37-2.744-7.747-8.78-10.449zM130.17.654h-8.085c-2.512 0-4.39.676-5.51 3.146L101.04 38.946h10.955s1.752-4.708 2.195-5.742h13.383c.296 1.33 1.246 5.742 1.246 5.742h9.71zm-12.94 24.803c.887-2.195 4.2-10.723 4.2-10.723-.063.063.887-2.195 1.394-3.673l.739 3.314s1.984 9.204 2.427 11.103h-8.76zM46.136.654L35.919 26.83 34.8 21.531c-1.92-6.185-7.873-12.792-14.48-16.106l9.33 33.605h11.103L57.218.654z"></path></g>
<path fill="#707070" d="M26.441.654H9.533l-.148.803c13.15 3.145 21.848 10.807 25.436 20.074L31.148 3.884c-.675-2.406-2.512-3.145-4.707-3.23"></path>
<path d="M72.062 90.658c.189.164.389.322.585.484a24.08 24.08 0 01-13.396 4.045c-13.364 0-24.198-10.835-24.198-24.198 0-13.364 10.834-24.198 24.198-24.198 4.954 0 9.56 1.49 13.396 4.044-.196.161-.395.32-.585.484a26.07 26.07 0 00-8.97 19.67c0 7.541 3.27 14.71 8.97 19.669zm17.1-43.867c-4.954 0-9.56 1.49-13.396 4.044.196.161.394.32.585.485a26.067 26.067 0 018.97 19.669c0 7.54-3.27 14.709-8.97 19.669-.19.164-.389.322-.586.484a24.082 24.082 0 0013.396 4.044c13.364 0 24.198-10.833 24.198-24.197 0-13.364-10.834-24.198-24.198-24.198zm-14.956 5.182c-.312.246-.617.498-.915.758-5.1 4.437-8.327 10.968-8.327 18.258 0 7.289 3.228 13.82 8.327 18.258.298.26.603.512.915.757.312-.245.617-.497.916-.757 5.099-4.438 8.327-10.97 8.327-18.258 0-7.29-3.228-13.821-8.327-18.257-.299-.26-.604-.513-.916-.759M21.582 118.97v-8.542c0-3.217-2.05-5.38-5.353-5.41-1.737-.028-3.53.512-4.783 2.42-.94-1.509-2.42-2.42-4.499-2.42-1.452 0-2.876.427-3.986 2.022v-1.68H0v13.61h2.99v-7.545c0-2.363 1.31-3.616 3.33-3.616 1.965 0 2.962 1.281 2.962 3.587v7.574h2.989v-7.545c0-2.363 1.367-3.616 3.33-3.616 2.023 0 2.99 1.281 2.99 3.587v7.574h2.99zm44.245-13.61h-4.841v-4.128h-2.99v4.128h-2.761v2.705h2.762v6.206c0 3.161 1.224 5.04 4.726 5.04 1.281 0 2.76-.399 3.7-1.054l-.853-2.534c-.883.512-1.851.77-2.62.77-1.48 0-1.964-.912-1.964-2.279v-6.15h4.84zm25.255-.342c-1.71 0-2.82.798-3.588 1.993v-1.651h-2.933v13.61h2.96v-7.631c0-2.25.969-3.502 2.905-3.502.598 0 1.225.085 1.851.341l.91-2.79c-.654-.256-1.508-.37-2.105-.37zM52.9 106.442c-1.423-.94-3.387-1.424-5.551-1.424-3.446 0-5.666 1.652-5.666 4.356 0 2.221 1.65 3.588 4.698 4.015l1.394.2c1.623.227 2.393.654 2.393 1.423 0 1.054-1.083 1.651-3.105 1.651-2.049 0-3.53-.654-4.526-1.422l-1.396 2.305c1.623 1.196 3.673 1.765 5.894 1.765 3.93 0 6.207-1.85 6.207-4.441 0-2.392-1.793-3.644-4.755-4.072l-1.395-.2c-1.28-.17-2.306-.426-2.306-1.337 0-.997.968-1.595 2.59-1.595 1.738 0 3.418.655 4.243 1.168zm79.323-1.424c-1.709 0-2.82.798-3.588 1.993v-1.651h-2.933v13.61h2.961v-7.631c0-2.25.968-3.502 2.904-3.502.599 0 1.225.085 1.851.341l.912-2.79c-.655-.256-1.51-.37-2.107-.37zm-38.153 7.147c0 4.128 2.876 7.146 7.261 7.146 2.05 0 3.417-.456 4.896-1.623l-1.423-2.392c-1.11.798-2.277 1.224-3.559 1.224-2.363-.028-4.1-1.736-4.1-4.356s1.737-4.327 4.1-4.356c1.282 0 2.449.427 3.559 1.225l1.423-2.392c-1.48-1.168-2.847-1.623-4.896-1.623-4.385 0-7.26 3.018-7.26 7.147zm27.732 0v-6.805h-2.961v1.651c-.94-1.224-2.362-1.993-4.3-1.993-3.815 0-6.804 2.99-6.804 7.147s2.989 7.146 6.805 7.146c1.936 0 3.36-.769 4.299-1.993v1.652h2.961zm-11.018 0c0-2.392 1.565-4.356 4.128-4.356 2.448 0 4.1 1.878 4.1 4.356 0 2.476-1.652 4.356-4.1 4.356-2.563 0-4.128-1.965-4.128-4.356zm-35.732-7.147c-3.986 0-6.776 2.904-6.776 7.147 0 4.328 2.903 7.146 6.975 7.146 2.05 0 3.929-.512 5.58-1.907l-1.451-2.193c-1.14.912-2.592 1.424-3.959 1.424-1.907 0-3.643-.883-4.07-3.331h10.107c.029-.37.057-.74.057-1.139-.028-4.243-2.648-7.147-6.463-7.147zm-.057 2.648c1.907 0 3.132 1.196 3.445 3.303h-7.06c.312-1.965 1.508-3.303 3.615-3.303zm74.282 4.499V99.893h-2.96v7.118c-.94-1.224-2.364-1.993-4.3-1.993-3.816 0-6.805 2.99-6.805 7.147s2.99 7.146 6.805 7.146c1.935 0 3.36-.769 4.3-1.993v1.652h2.96zm-11.018 0c0-2.392 1.566-4.356 4.128-4.356 2.448 0 4.1 1.879 4.1 4.356s-1.652 4.356-4.1 4.356c-2.562 0-4.128-1.965-4.128-4.356zm-99.993 0v-6.805h-2.961v1.651c-.94-1.224-2.362-1.993-4.3-1.993-3.815 0-6.804 2.99-6.804 7.147s2.99 7.146 6.805 7.146c1.936 0 3.36-.769 4.299-1.993v1.652h2.961zm-11.018 0c0-2.392 1.565-4.356 4.128-4.356 2.449 0 4.1 1.879 4.1 4.356s-1.651 4.356-4.1 4.356c-2.563 0-4.128-1.965-4.128-4.356z"></path>
</symbol>

<symbol id="neteller" viewBox="16.6 511.9 595.3 118">

<path d="M541.8 563c-3.2 2.2-7.7 3.2-14.2 3.2h-6.2l4.7-25.9h4.7c5.2 0 9 .7 11.7 2.5 2 1.2 4.5 4 4.5 9 0 6.2-2.8 9.7-5.2 11.2m-373.1 32.7h-48.4l3.2-17H154l3.5-19.2h-30.2l3-16.7h48.4l-10 52.9zm399.2-67.3c-7.2-5-18-7.2-31.9-7.2h-37.2l-13.7 74.6h-48.4l3-17h29.2l3.5-19h-29.2l3.2-17h30.2l4-21.9h-61.3l-13 70.8h-22.4l13.2-70.8h-31.9l-13 70.8h-21.9l13.2-70.8h-31.9l-13.7 74.6H249l3-17h29.4l3.5-19h-29.2l3-17h30.4l4-21.9H102.8l-10.7 59.1-21.7-59.1H37.3l-17.7 96.5h31.7L62 556.3l20.9 60.8h113.5l13.7-74.6h17.7l-13.7 74.6h298l8.7-47.1 14 47.1h31.7L552 578.7l3.2-.7c7.2-1.5 13-5 17-10s6-11.7 6-19.5c0-8.7-3.5-15.4-10.3-20.1M593.9 606.2l4.2-.2c1 0 1.7-.2 2.2-.5.5-.2 1-.5 1.2-1 .2-.5.2-1 .2-1.5 0-.7-.2-1.2-.7-1.7s-1.5-.5-2.5-.5l-4.7.2v5.2zm-1.5 8.5l-.7-15.2 6.7-.2c1.2 0 2.5 0 3 .2.7.2 1.2.7 1.7 1.2.5.7.7 1.5.7 2.2 0 1-.2 2-1 2.7s-1.7 1.2-3.2 1.5c.5.2 1 .5 1.2.7.5.5 1.2 1.2 1.7 2l2.7 4-2.5.2-2.2-3c-.7-1-1.2-1.5-1.5-2l-1-1c-.3-.3-.7-.2-1-.2H593.6l.2 6.7h-1.4z"></path>
<path d="M585.9 607.4c-.2-3.2 1-6.2 3-8.5 2-2.2 5-3.7 8.2-4 6.5-.2 12 4.7 12.5 11.2v.5c0 6.2-5 11.5-11.2 11.7-6.8.6-12.3-4.4-12.5-10.9m11-14.9c-3.7.2-7.2 1.7-9.7 4.7-2.5 2.7-3.7 6.5-3.7 10.2.5 7.7 7 13.7 15 13.5 7.7-.5 14-7 13.5-15-.7-7.7-7.4-13.7-15.1-13.4"></path></g>
</symbol>


</defs>
</svg>